:FULLY-SPECIFIED
:FORCE-ALL-JOINTS-BE-3DOF
:DEGREES
3160
root 0.915216 16.9185 -33.3606 1086.25 6.40178 -2.93639
lfemur -20.0773 -1.93167 -8.16858
ltibia 36.1785 0 0
lfoot -16.7643 5.78807 0
ltoes -39.1688 0 0
rfemur -21.1708 -1.19443 18.4869
rtibia 41.7804 0 0
rfoot -13.0499 -21.6655 0
rtoes -16.331 0 0
lowerback 6.49864 1.40068 -0.152342
upperback -3.60448 2.00333 1.94185
thorax -7.50972 1.04805 1.8686
lowerneck -4.31426 -5.07608 -7.98619
upperneck 6.81973 -6.66953 5.7712
head 3.43499 -3.31356 2.98162
lclavicle 1.72935e-14 9.79169e-15 0
lhumerus -32.4784 -23.8179 96.856
lradius 59.5011 0 0
lwrist -6.3753 0 0
lhand -32.7985 391.457 0
lfingers 7.12502 0 0
lthumb -6.01963 -658.649 0
rclavicle 1.72935e-14 9.79169e-15 0
rhumerus -35.0649 19.8111 -81.7427
rradius 63.0674 0 0
rwrist -2.79435 0 0
rhand -29.1256 -393.878 0
rfingers 7.12502 0 0
rthumb -2.47341 296.184 0
3161
root 0.923735 16.9216 -33.3562 1086.25 6.32606 -2.96533
lfemur -20.0249 -1.93336 -8.16137
ltibia 36.176 0 0
lfoot -16.7524 5.86718 0
ltoes -39.2144 0 0
rfemur -21.1275 -1.16186 18.5011
rtibia 41.7164 0 0
rfoot -13.0301 -21.6318 0
rtoes -16.3449 0 0
lowerback 6.47943 1.40884 -0.167598
upperback -3.61461 2.01264 1.93652
thorax -7.51018 1.05336 1.87095
lowerneck -4.33933 -5.07405 -7.98387
upperneck 6.91104 -6.66887 5.77483
head 3.45765 -3.31234 2.97348
lclavicle 1.87045e-14 9.88732e-15 0
lhumerus -32.3989 -23.6125 96.7619
lradius 59.0308 0 0
lwrist -6.51891 0 0
lhand -32.8211 391.449 0
lfingers 7.12502 0 0
lthumb -6.04143 -658.658 0
rclavicle 1.87045e-14 9.88732e-15 0
rhumerus -35.04 19.6178 -81.7548
rradius 62.6333 0 0
rwrist -2.81502 0 0
rhand -28.9598 -393.775 0
rfingers 7.12502 0 0
rthumb -2.31334 296.289 0
3162
root 0.932255 16.9247 -33.3517 1086.23 6.24029 -2.99952
lfemur -19.9597 -1.9371 -8.1557
ltibia 36.1635 0 0
lfoot -16.7383 5.95776 0
ltoes -39.2599 0 0
rfemur -21.0721 -1.12309 18.5146
rtibia 41.6323 0 0
rfoot -13.0034 -21.5926 0
rtoes -16.3588 0 0
lowerback 6.45462 1.41859 -0.184909
upperback -3.62733 2.02386 1.93077
thorax -7.5103 1.05973 1.87386
lowerneck -4.37132 -5.07134 -7.98034
upperneck 7.0183 -6.66737 5.77794
head 3.48536 -3.31058 2.96383
lclavicle 2.02763e-14 1.00244e-14 0
lhumerus -32.3244 -23.3687 96.6543
lradius 58.4975 0 0
lwrist -6.68492 0 0
lhand -32.8488 391.436 0
lfingers 7.12502 0 0
lthumb -6.06817 -658.673 0
rclavicle 2.02763e-14 1.00244e-14 0
rhumerus -35.0191 19.3786 -81.7631
rradius 62.1062 0 0
rwrist -2.80356 0 0
rhand -28.7968 -393.674 0
rfingers 7.12502 0 0
rthumb -2.15593 296.391 0
3163
root 0.940775 16.9278 -33.3473 1086.22 6.14377 -3.03936
lfemur -19.8807 -1.94309 -8.1518
ltibia 36.1399 0 0
lfoot -16.7218 6.06063 0
ltoes -39.3051 0 0
rfemur -21.0035 -1.07763 18.5272
rtibia 41.5263 0 0
rfoot -12.9693 -21.5475 0
rtoes -16.3728 0 0
lowerback 6.4237 1.43005 -0.204412
upperback -3.64288 2.03713 1.92459
thorax -7.51005 1.06722 1.87736
lowerneck -4.41085 -5.06788 -7.9755
upperneck 7.14275 -6.66495 5.78044
head 3.51853 -3.30823 2.95255
lclavicle 2.20185e-14 1.02068e-14 0
lhumerus -32.256 -23.0833 96.5324
lradius 57.8969 0 0
lwrist -6.87499 0 0
lhand -32.882 391.417 0
lfingers 7.12502 0 0
lthumb -6.10024 -658.693 0
rclavicle 2.20185e-14 1.02068e-14 0
rhumerus -35.0028 19.0895 -81.7671
rradius 61.4785 0 0
rwrist -2.75634 0 0
rhand -28.6377 -393.576 0
rfingers 7.12502 0 0
rthumb -2.00236 296.491 0
3164
root 0.949294 16.9309 -33.3429 1086.21 6.03585 -3.08526
lfemur -19.7868 -1.95155 -8.14987
ltibia 36.1042 0 0
lfoot -16.7028 6.1766 0
ltoes -39.3497 0 0
rfemur -20.9205 -1.02497 18.5388
rtibia 41.3966 0 0
rfoot -12.9271 -21.4962 0
rtoes -16.3867 0 0
lowerback 6.38617 1.44335 -0.22625
upperback -3.66148 2.05262 1.91794
thorax -7.50938 1.07594 1.88152
lowerneck -4.45854 -5.0636 -7.96923
upperneck 7.28562 -6.66151 5.78227
head 3.5576 -3.30523 2.9395
lclavicle 2.3941e-14 1.04387e-14 0
lhumerus -32.1946 -22.7533 96.3951
lradius 57.2248 0 0
lwrist -7.09075 0 0
lhand -32.9212 391.392 0
lfingers 7.12502 0 0
lthumb -6.13807 -658.719 0
rclavicle 2.3941e-14 1.04387e-14 0
rhumerus -34.9916 18.7466 -81.7663
rradius 60.7424 0 0
rwrist -2.66972 0 0
rhand -28.4839 -393.48 0
rfingers 7.12502 0 0
rthumb -1.8538 296.587 0
3165
root 0.957814 16.9339 -33.3384 1086.19 5.91582 -3.13765
lfemur -19.6769 -1.96269 -8.15012
ltibia 36.0553 0 0
lfoot -16.6812 6.3065 0
ltoes -39.3935 0 0
rfemur -20.8221 -0.964622 18.5491
rtibia 41.2413 0 0
rfoot -12.8763 -21.4381 0
rtoes -16.4005 0 0
lowerback 6.34151 1.45862 -0.250561
upperback -3.68336 2.07048 1.91082
thorax -7.50825 1.08595 1.88638
lowerneck -4.515 -5.05844 -7.96139
upperneck 7.44816 -6.65697 5.78335
head 3.60299 -3.30155 2.92458
lclavicle 2.60534e-14 1.0724e-14 0
lhumerus -32.1412 -22.3755 96.2415
lradius 56.4768 0 0
lwrist -7.33388 0 0
lhand -32.9668 391.36 0
lfingers 7.12502 0 0
lthumb -6.18209 -658.753 0
rclavicle 2.60534e-14 1.0724e-14 0
rhumerus -34.9862 18.3461 -81.7603
rradius 59.8901 0 0
rwrist -2.54009 0 0
rhand -28.3365 -393.387 0
rfingers 7.12502 0 0
rthumb -1.71144 296.679 0
3166
root 0.966334 16.937 -33.334 1086.18 5.78303 -3.19692
lfemur -19.5498 -1.97672 -8.15275
ltibia 35.9921 0 0
lfoot -16.6567 6.45112 0
ltoes -39.4362 0 0
rfemur -20.7072 -0.896089 18.558
rtibia 41.0585 0 0
rfoot -12.8161 -21.3728 0
rtoes -16.4141 0 0
lowerback 6.28922 1.47598 -0.277485
upperback -3.70875 2.09088 1.90322
thorax -7.50663 1.09736 1.89198
lowerneck -4.58086 -5.05234 -7.95189
upperneck 7.63159 -6.65123 5.7836
head 3.65512 -3.29711 2.90766
lclavicle 2.83655e-14 1.10666e-14 0
lhumerus -32.0969 -21.947 96.0706
lradius 55.6486 0 0
lwrist -7.606 0 0
lhand -33.0192 391.32 0
lfingers 7.12502 0 0
lthumb -6.23269 -658.793 0
rclavicle 2.83655e-14 1.10666e-14 0
rhumerus -34.987 17.8838 -81.7485
rradius 58.914 0 0
rwrist -2.3638 0 0
rhand -28.1967 -393.299 0
rfingers 7.12502 0 0
rthumb -1.57646 296.767 0
3167
root 0.974853 16.9401 -33.3295 1086.16 5.63678 -3.26349
lfemur -19.4045 -1.99386 -8.15799
ltibia 35.9136 0 0
lfoot -16.6292 6.61129 0
ltoes -39.4776 0 0
rfemur -20.5748 -0.818874 18.5654
rtibia 40.8465 0 0
rfoot -12.7459 -21.3001 0
rtoes -16.4274 0 0
lowerback 6.2288 1.49558 -0.307162
upperback -3.73787 2.11396 1.8951
thorax -7.50448 1.11023 1.89838
lowerneck -4.65673 -5.04523 -7.94059
upperneck 7.83716 -6.64422 5.78295
head 3.71443 -3.29188 2.88862
lclavicle 3.0887e-14 1.14707e-14 0
lhumerus -32.0626 -21.4647 95.8816
lradius 54.7361 0 0
lwrist -7.90879 0 0
lhand -33.0789 391.273 0
lfingers 7.12502 0 0
lthumb -6.29031 -658.842 0
rclavicle 3.0887e-14 1.14707e-14 0
rhumerus -34.9948 17.3559 -81.7305
rradius 57.8062 0 0
rwrist -2.13724 0 0
rhand -28.0658 -393.216 0
rfingers 7.12502 0 0
rthumb -1.45003 296.848 0
3168
root 0.983373 16.9432 -33.3251 1086.14 5.47639 -3.33778
lfemur -19.2398 -2.01432 -8.16603
ltibia 35.8186 0 0
lfoot -16.5985 6.78782 0
ltoes -39.5174 0 0
rfemur -20.4236 -0.732479 18.5711
rtibia 40.6034 0 0
rfoot -12.6651 -21.2194 0
rtoes -16.4405 0 0
lowerback 6.15974 1.51753 -0.339731
upperback -3.77095 2.13988 1.88646
thorax -7.50175 1.12467 1.90562
lowerneck -4.74322 -5.03706 -7.92738
upperneck 8.06611 -6.63584 5.78131
head 3.78134 -3.2858 2.86735
lclavicle 3.36276e-14 1.19402e-14 0
lhumerus -32.0393 -20.9254 95.6735
lradius 53.7348 0 0
lwrist -8.24389 0 0
lhand -33.1462 391.218 0
lfingers 7.12502 0 0
lthumb -6.35536 -658.899 0
rclavicle 3.36276e-14 1.19402e-14 0
rhumerus -35.01 16.7585 -81.7059
rradius 56.559 0 0
rwrist -1.85676 0 0
rhand -27.945 -393.138 0
rfingers 7.12502 0 0
rthumb -1.33334 296.923 0
3169
root 0.991892 16.9463 -33.3206 1086.12 5.3012 -3.42019
lfemur -19.0547 -2.03832 -8.17709
ltibia 35.7061 0 0
lfoot -16.5644 6.98153 0
ltoes -39.5553 0 0
rfemur -20.2527 -0.636409 18.5749
rtibia 40.3273 0 0
rfoot -12.5731 -21.1303 0
rtoes -16.4531 0 0
lowerback 6.08153 1.54196 -0.375333
upperback -3.80823 2.1688 1.87729
thorax -7.49841 1.14075 1.91374
lowerneck -4.84097 -5.02774 -7.91214
upperneck 8.31966 -6.62601 5.77861
head 3.85627 -3.27882 2.84371
lclavicle 3.65972e-14 1.24791e-14 0
lhumerus -32.028 -20.3262 95.4452
lradius 52.6406 0 0
lwrist -8.61294 0 0
lhand -33.2218 391.154 0
lfingers 7.12502 0 0
lthumb -6.42826 -658.965 0
rclavicle 3.65972e-14 1.24791e-14 0
rhumerus -35.0332 16.0875 -81.674
rradius 55.1648 0 0
rwrist -1.51875 0 0
rhand -27.8355 -393.068 0
rfingers 7.12502 0 0
rthumb -1.22756 296.991 0
3170
root 1.00041 16.9494 -33.3162 1086.1 5.11052 -3.51114
lfemur -18.8481 -2.06606 -8.19138
ltibia 35.5751 0 0
lfoot -16.5268 7.19323 0
ltoes -39.5912 0 0
rfemur -20.061 -0.530165 18.5767
rtibia 40.0165 0 0
rfoot -12.4693 -21.0325 0
rtoes -16.4653 0 0
lowerback 5.99367 1.569 -0.414107
upperback -3.84992 2.20088 1.86755
thorax -7.49442 1.15856 1.9228
lowerneck -4.95057 -5.01723 -7.89475
upperneck 8.59905 -6.61463 5.77477
head 3.93965 -3.27089 2.81759
lclavicle 3.98053e-14 1.30914e-14 0
lhumerus -32.0297 -19.664 95.196
lradius 51.4492 0 0
lwrist -9.01761 0 0
lhand -33.3058 391.081 0
lfingers 7.12502 0 0
lthumb -6.50942 -659.041 0
rclavicle 3.98053e-14 1.30914e-14 0
rhumerus -35.065 15.3391 -81.6345
rradius 53.6156 0 0
rwrist -1.11957 0 0
rhand -27.7385 -393.004 0
rfingers 7.12502 0 0
rthumb -1.13388 297.051 0
3171
root 1.00893 16.9525 -33.3118 1086.08 4.90367 -3.61105
lfemur -18.6188 -2.09777 -8.2091
ltibia 35.4244 0 0
lfoot -16.4855 7.42373 0
ltoes -39.6246 0 0
rfemur -19.8473 -0.413251 18.5763
rtibia 39.669 0 0
rfoot -12.3529 -20.9255 0
rtoes -16.477 0 0
lowerback 5.89565 1.59877 -0.456194
upperback -3.89626 2.23627 1.85724
thorax -7.48973 1.17818 1.93284
lowerneck -5.07266 -5.00545 -7.8751
upperneck 8.90553 -6.60163 5.76972
head 4.0319 -3.26195 2.78887
lclavicle 4.32618e-14 1.37811e-14 0
lhumerus -32.0454 -18.9356 94.9247
lradius 50.1563 0 0
lwrist -9.45954 0 0
lhand -33.3989 390.998 0
lfingers 7.12502 0 0
lthumb -6.59927 -659.127 0
rclavicle 4.32618e-14 1.37811e-14 0
rhumerus -35.106 14.5093 -81.5868
rradius 51.9039 0 0
rwrist -0.655598 0 0
rhand -27.6554 -392.948 0
rfingers 7.12502 0 0
rthumb -1.05349 297.102 0
3172
root 1.01745 16.9556 -33.3073 1086.05 4.67997 -3.72031
lfemur -18.3658 -2.13365 -8.23048
ltibia 35.2529 0 0
lfoot -16.4403 7.67386 0
ltoes -39.6555 0 0
rfemur -19.6106 -0.285171 18.5736
rtibia 39.2831 0 0
rfoot -12.2234 -20.8088 0
rtoes -16.4881 0 0
lowerback 5.78697 1.63142 -0.501732
upperback -3.94748 2.27513 1.84634
thorax -7.48432 1.1997 1.94392
lowerneck -5.20785 -4.99234 -7.85307
upperneck 9.24033 -6.5869 5.76338
head 4.13346 -3.25195 2.75743
lclavicle 4.69764e-14 1.45522e-14 0
lhumerus -32.0761 -18.1381 94.6305
lradius 48.7576 0 0
lwrist -9.94038 0 0
lhand -33.5014 390.905 0
lfingers 7.12502 0 0
lthumb -6.69821 -659.223 0
rclavicle 4.69764e-14 1.45522e-14 0
rhumerus -35.1568 13.5942 -81.5305
rradius 50.0217 0 0
rwrist -0.123199 0 0
rhand -27.5872 -392.901 0
rfingers 7.12502 0 0
rthumb -0.987545 297.144 0
